<?xml version="1.0" encoding="utf-8"?><!-- Uploaded to: SVG Repo, www.svgrepo.com, Generator: SVG Repo Mixer Tools -->
<svg fill="#000000" width="800px" height="800px" viewBox="0 0 24 24" id="folder-search" data-name="Flat Color" xmlns="http://www.w3.org/2000/svg" class="icon flat-color"><path id="secondary" d="M21,22a1,1,0,0,1-.71-.29l-2.53-2.54a5,5,0,1,1,1.41-1.41l2.54,2.53a1,1,0,0,1,0,1.42A1,1,0,0,1,21,22ZM15,12a3,3,0,1,0,3,3A3,3,0,0,0,15,12Z" style="fill: rgb(44, 169, 188);"></path><path id="primary" d="M22,7v4.83A7.42,7.42,0,0,0,8.23,14.88,7.23,7.23,0,0,0,9,19H4a2,2,0,0,1-2-2V4A2,2,0,0,1,4,2H9a2,2,0,0,1,1.41.59L12.83,5H20A2,2,0,0,1,22,7Z" style="fill: rgb(0, 0, 0);"></path></svg>